<?xml version="1.0" encoding="UTF-8" standalone="no"?>
<svg
   xmlns:dc="http://purl.org/dc/elements/1.1/"
   xmlns:cc="http://creativecommons.org/ns#"
   xmlns:rdf="http://www.w3.org/1999/02/22-rdf-syntax-ns#"
   xmlns:svg="http://www.w3.org/2000/svg"
   xmlns="http://www.w3.org/2000/svg"
   xmlns:sodipodi="http://sodipodi.sourceforge.net/DTD/sodipodi-0.dtd"
   xmlns:inkscape="http://www.inkscape.org/namespaces/inkscape"
   version="1.1"
   width="3328.29"
   height="888.38617"
   id="svg2"
   inkscape:version="0.47 r22583"
   sodipodi:docname="ctman logo.svg">
  <metadata
     id="metadata10">
    <rdf:RDF>
      <cc:Work
         rdf:about="">
        <dc:format>image/svg+xml</dc:format>
        <dc:type
           rdf:resource="http://purl.org/dc/dcmitype/StillImage" />
        <dc:title></dc:title>
      </cc:Work>
    </rdf:RDF>
  </metadata>
  <defs
     id="defs8">
    <inkscape:perspective
       sodipodi:type="inkscape:persp3d"
       inkscape:vp_x="0 : 235.832 : 1"
       inkscape:vp_y="0 : 1000 : 0"
       inkscape:vp_z="313.62201 : 235.832 : 1"
       inkscape:persp3d-origin="156.811 : 157.22133 : 1"
       id="perspective12" />
    <inkscape:perspective
       id="perspective2858"
       inkscape:persp3d-origin="315 : 210 : 1"
       inkscape:vp_z="630 : 315 : 1"
       inkscape:vp_y="0 : 1000 : 0"
       inkscape:vp_x="0 : 315 : 1"
       sodipodi:type="inkscape:persp3d" />
    <inkscape:perspective
       id="perspective2876"
       inkscape:persp3d-origin="0.5 : 0.33333333 : 1"
       inkscape:vp_z="1 : 0.5 : 1"
       inkscape:vp_y="0 : 1000 : 0"
       inkscape:vp_x="0 : 0.5 : 1"
       sodipodi:type="inkscape:persp3d" />
    <inkscape:perspective
       id="perspective2876-7"
       inkscape:persp3d-origin="0.5 : 0.33333333 : 1"
       inkscape:vp_z="1 : 0.5 : 1"
       inkscape:vp_y="0 : 1000 : 0"
       inkscape:vp_x="0 : 0.5 : 1"
       sodipodi:type="inkscape:persp3d" />
    <inkscape:perspective
       id="perspective3683"
       inkscape:persp3d-origin="0.5 : 0.33333333 : 1"
       inkscape:vp_z="1 : 0.5 : 1"
       inkscape:vp_y="0 : 1000 : 0"
       inkscape:vp_x="0 : 0.5 : 1"
       sodipodi:type="inkscape:persp3d" />
    <inkscape:perspective
       id="perspective3722"
       inkscape:persp3d-origin="0.5 : 0.33333333 : 1"
       inkscape:vp_z="1 : 0.5 : 1"
       inkscape:vp_y="0 : 1000 : 0"
       inkscape:vp_x="0 : 0.5 : 1"
       sodipodi:type="inkscape:persp3d" />
    <inkscape:perspective
       id="perspective3722-4"
       inkscape:persp3d-origin="0.5 : 0.33333333 : 1"
       inkscape:vp_z="1 : 0.5 : 1"
       inkscape:vp_y="0 : 1000 : 0"
       inkscape:vp_x="0 : 0.5 : 1"
       sodipodi:type="inkscape:persp3d" />
  </defs>
  <sodipodi:namedview
     pagecolor="#ffffff"
     bordercolor="#666666"
     borderopacity="1"
     objecttolerance="10"
     gridtolerance="10"
     guidetolerance="10"
     inkscape:pageopacity="0"
     inkscape:pageshadow="2"
     inkscape:window-width="1280"
     inkscape:window-height="740"
     id="namedview6"
     showgrid="false"
     inkscape:showpageshadow="false"
     inkscape:zoom="0.25017809"
     inkscape:cx="1685.0227"
     inkscape:cy="440.2459"
     inkscape:window-x="-4"
     inkscape:window-y="-4"
     inkscape:window-maximized="1"
     inkscape:current-layer="g2861">
    <inkscape:grid
       type="xygrid"
       id="grid2899"
       empspacing="5"
       visible="true"
       enabled="true"
       snapvisiblegridlinesonly="true" />
  </sodipodi:namedview>
  <g
     id="g2861"
     transform="translate(663.60317,107.15874)">
    <rect
       style="fill:#008000;stroke:#000000;stroke-width:1.05558753;stroke-opacity:1"
       id="rect2901"
       width="3327.2344"
       height="887.33057"
       x="-663.07538"
       y="-106.63094" />
    <circle
       transform="matrix(1.0471069,0,0,1.0471068,1354.4298,6.7296869)"
       d="M 615,315 C 615,480.68542 480.68542,615 315,615 149.31458,615 15,480.68542 15,315 15,149.31458 149.31458,15 315,15 480.68542,15 615,149.31458 615,315 z"
       style="fill:#ffffff"
       sodipodi:ry="300"
       sodipodi:rx="300"
       sodipodi:cy="315"
       sodipodi:cx="315"
       cx="315"
       cy="315"
       r="300"
       id="circle3699-8" />
    <circle
       transform="translate(1369.6085,21.813491)"
       id="circle2842-4"
       r="300"
       cy="315"
       cx="315"
       sodipodi:cx="315"
       sodipodi:cy="315"
       sodipodi:rx="300"
       sodipodi:ry="300"
       style="fill:#008000;stroke:none"
       d="M 615,315 C 615,480.68542 480.68542,615 315,615 149.31458,615 15,480.68542 15,315 15,149.31458 149.31458,15 315,15 480.68542,15 615,149.31458 615,315 z" />
    <circle
       transform="matrix(1.0471069,0,0,1.0471068,673.26412,9.5561007)"
       d="M 615,315 C 615,480.68542 480.68542,615 315,615 149.31458,615 15,480.68542 15,315 15,149.31458 149.31458,15 315,15 480.68542,15 615,149.31458 615,315 z"
       style="fill:#ffffff"
       sodipodi:ry="300"
       sodipodi:rx="300"
       sodipodi:cy="315"
       sodipodi:cx="315"
       cx="315"
       cy="315"
       r="300"
       id="circle3699-9" />
    <circle
       transform="translate(689.60852,21.813491)"
       id="circle2842-1"
       r="300"
       cy="315"
       cx="315"
       sodipodi:cx="315"
       sodipodi:cy="315"
       sodipodi:rx="300"
       sodipodi:ry="300"
       style="fill:#008000;stroke:none"
       d="M 615,315 C 615,480.68542 480.68542,615 315,615 149.31458,615 15,480.68542 15,315 15,149.31458 149.31458,15 315,15 480.68542,15 615,149.31458 615,315 z" />
    <circle
       transform="matrix(1.0471069,0,0,1.0471068,-5.2301519,6.9748242)"
       d="M 615,315 C 615,480.68542 480.68542,615 315,615 149.31458,615 15,480.68542 15,315 15,149.31458 149.31458,15 315,15 480.68542,15 615,149.31458 615,315 z"
       style="fill:#ffffff"
       sodipodi:ry="300"
       sodipodi:rx="300"
       sodipodi:cy="315"
       sodipodi:cx="315"
       cx="315"
       cy="315"
       r="300"
       id="circle3699" />
    <circle
       id="circle2842"
       r="300"
       cy="315"
       cx="315"
       sodipodi:cx="315"
       sodipodi:cy="315"
       sodipodi:rx="300"
       sodipodi:ry="300"
       style="fill:#008000;stroke:none"
       d="M 615,315 C 615,480.68542 480.68542,615 315,615 149.31458,615 15,480.68542 15,315 15,149.31458 149.31458,15 315,15 480.68542,15 615,149.31458 615,315 z"
       transform="translate(9.60852,21.813491)" />
    <g
       id="g2844"
       transform="translate(-7.40208,95.957581)">
      <desc
         id="desc2846">
Path points for the bus obtained at http://commons.wikimedia.org/wiki/Image:Aiga_bus.svg by http://commons.wikimedia.org/wiki/User:Rfc1394 who vectorized the original icon designed by AIGA at http://www.aiga.org/content.cfm/symbol-signs.
Both images were released under Public Domain.
</desc>
      <path
         id="path2848"
         d="m 181.90658,156.87997 17.7839,-69.137875 39.33293,-39.71178 196.04689,0.749278 31.18936,38.587022 22.17764,74.804185 3.20356,195.35313 -309.52785,-10.59694 -0.20643,-190.04702 z"
         style="fill:#008000" />
      <path
         id="path2850"
         d="m 202.01059,454.26396 c -4.54488,-1.96555 -9.62767,-6.88221 -12.31042,-11.90806 -1.90188,-3.56297 -2.1764,-5.96662 -2.51262,-22 -0.25357,-12.09183 -0.75485,-18.24115 -1.52721,-18.73469 -0.63236,-0.40408 -7.3505,-0.74158 -14.92918,-0.75 l -13.77944,-0.0153 0.29738,-93.75 0.29737,-93.75 8.69151,-65 c 4.78033,-35.75001 9.37868,-67.283335 10.21855,-70.074073 2.25055,-7.478132 8.63872,-16.669108 15.24062,-21.927426 6.75946,-5.38382 24.31493,-14.140503 35.81344,-17.86378 10.61231,-3.43632 29.86631,-8.008912 46.50001,-11.043195 45.11731,-8.230199 81.96607,-7.80855 129.62178,1.48322 54.4943,10.625139 81.69396,25.334032 89.34099,48.313363 1.3805,4.148416 4.87787,27.882001 10.5511,71.601161 l 8.48613,65.39588 0,93.30742 0,93.30743 -13.25,0.0153 c -7.2875,0.008 -13.76667,0.34592 -14.39815,0.75 -0.76535,0.48974 -1.28495,6.56925 -1.55849,18.23469 -0.47552,20.27986 -1.45174,23.76885 -8.3493,29.84033 -13.26898,11.67982 -36.52527,6.18278 -41.30263,-9.76261 -0.64974,-2.16866 -1.14143,-10.72891 -1.14143,-19.87231 0,-13.26899 -0.2733,-16.33585 -1.57143,-17.63398 -1.40625,-1.40625 -11.43723,-1.57143 -95.42857,-1.57143 -83.99135,0 -94.02233,0.16518 -95.42858,1.57143 -1.30209,1.30209 -1.5731,4.43007 -1.5812,18.25 -0.009,15.43083 -0.18616,17.05262 -2.36765,21.67857 -2.8098,5.95831 -5.57483,8.67418 -11.62258,11.41597 -5.51068,2.4983 -16.77831,2.75033 -22,0.49209 z M 221.1008,342.48478 c 9.46556,-3.3835 16.05265,-12.77879 16.05265,-22.89619 0,-14.07038 -10.50652,-24.73269 -24.37132,-24.73269 -6.89098,0 -11.05605,1.55488 -16.15318,6.03022 -5.82118,5.11107 -8.05896,10.23968 -8.05896,18.46978 0,7.77399 2.06736,12.92595 7.09902,17.69105 6.44911,6.10747 17.15464,8.39653 25.43179,5.43783 z m 246.97362,-1.37888 c 18.07464,-9.16658 18.07464,-34.33342 0,-43.5 -12.80683,-6.495 -28.32271,-0.8778 -33.83708,12.25 -2.24224,5.33798 -1.89907,14.9797 0.72617,20.40272 5.89274,12.17277 20.84111,17.06992 33.11091,10.84728 z m 1.99765,-109.26166 c 2.93394,-0.55641 6.34473,-1.96077 7.57953,-3.1208 2.47924,-2.32913 4.39428,-9.7056 3.73001,-14.36754 -0.2351,-1.65 -3.53427,-25.34567 -7.33148,-52.65704 -7.10962,-51.13572 -7.87962,-54.67775 -12.86692,-59.18805 -5.14662,-4.654371 -2.70061,-4.564487 -125.47979,-4.611022 -83.07339,-0.03149 -117.07878,0.276296 -120.30587,1.088887 -5.88911,1.482895 -10.00374,5.715295 -11.84718,12.186285 -2.47548,8.68959 -15.69156,106.35495 -14.93656,110.37947 1.00263,5.34447 5.20014,9.48278 10.48554,10.33765 7.16885,1.15951 264.84628,1.11402 270.97272,-0.0478 z M 410.5106,75.881391 c 4.61537,-1.069372 7.17314,-3.766279 8.06113,-8.499631 0.79272,-4.225571 -1.74678,-9.833794 -5.15637,-11.387308 -1.80066,-0.820432 -23.93049,-1.132344 -79.20181,-1.116321 -71.16498,0.02063 -76.85695,0.146981 -78.83591,1.75 -4.70832,3.813886 -5.63952,9.628544 -2.39432,14.950927 1.17041,1.91958 3.09,3.471614 4.74626,3.837471 1.52956,0.337869 3.23102,0.76442 3.78102,0.94789 2.44849,0.81677 145.39008,0.353383 149,-0.483028 z"
         style="fill:#ffffff" />
    </g>
    <circle
       transform="matrix(0.85832084,0,0,0.85796229,1414.345,69.381781)"
       id="circle2842-4-0"
       r="300"
       cy="315"
       cx="315"
       sodipodi:cx="315"
       sodipodi:cy="315"
       sodipodi:rx="300"
       sodipodi:ry="300"
       style="fill:#ffffff"
       d="M 615,315 C 615,480.68542 480.68542,615 315,615 149.31458,615 15,480.68542 15,315 15,149.31458 149.31458,15 315,15 480.68542,15 615,149.31458 615,315 z" />
    <circle
       d="M 615,315 C 615,480.68542 480.68542,615 315,615 149.31458,615 15,480.68542 15,315 15,149.31458 149.31458,15 315,15 480.68542,15 615,149.31458 615,315 z"
       style="fill:none;stroke:#ffffff;stroke-width:20;stroke-miterlimit:4;stroke-opacity:0;stroke-dasharray:none"
       sodipodi:ry="300"
       sodipodi:rx="300"
       sodipodi:cy="315"
       sodipodi:cx="315"
       cx="315"
       cy="315"
       r="300"
       id="circle3697"
       transform="translate(1369.6085,21.813491)" />
  </g>
  <path
     d="m 1756.5161,570.12458 c 23.012,-3.709 45.919,-27.709 45.919,-56.959 l 0,-213.857 c 0,-30.192 -25.399,-57.906 -59.907,-57.906 l -147.622,0 c -34.507,0 -59.907,27.714 -59.907,57.906 l 0,213.857 c 0,29.25 22.907,53.25 45.919,56.959 l -69.012,103.518 39.816,0 49.363,-72.367 135.264,0 49.363,72.367 39.815,0 -69.011,-103.518 z m -126.676,-306.708 c 0,-5.25 4.566,-9.66 9.816,-9.66 l 58.122,0 c 5.25,0 9.816,4.41 9.816,9.66 l 0,17 c 0,5.25 -4.316,9.763 -9.816,9.763 l -58.122,0 c -5.5,0 -9.816,-4.513 -9.816,-9.763 l 0,-17 z m -62.782,68.25 c 0,-16 10.348,-29.962 29.848,-29.962 l 143.622,0 c 19.5,0 29.849,13.962 29.849,29.962 l 0,38.5 c 0.151,18.5 -13.349,29.826 -29.849,29.826 l -143.622,0 c -16.5,0 -30,-11.326 -29.848,-29.826 l 0,-38.5 z m 26.598,207.263 c -14.505,0 -26.263,-11.76 -26.263,-26.264 0,-14.504 11.758,-26.263 26.263,-26.263 14.505,0 26.263,11.759 26.263,26.263 0,14.504 -11.758,26.264 -26.263,26.264 z m 123.25,-26.263 c 0,-14.504 11.758,-26.263 26.263,-26.263 14.505,0 26.263,11.759 26.263,26.263 0,14.504 -11.758,26.264 -26.263,26.264 -14.505,0 -26.263,-11.761 -26.263,-26.264 z m -9.554,-294.096 c 0,9.1635 -7.4285,16.59199 -16.592,16.59199 -9.1635,0 -16.592,-7.42849 -16.592,-16.59199 0,-9.16351 7.4285,-16.592 16.592,-16.592 9.1635,0 16.592,7.42849 16.592,16.592 z m -44.086,0 c 0,9.1635 -7.4285,16.59199 -16.592,16.59199 -9.1635,0 -16.592,-7.42849 -16.592,-16.59199 0,-9.16351 7.4285,-16.592 16.592,-16.592 9.1635,0 16.592,7.42849 16.592,16.592 z"
     id="path4"
     style="fill:#ffffff" />
  <path
     id="path2818"
     d="m 2442.1689,575.7774 c 23.0121,-3.709 45.9191,-27.709 45.9191,-56.959 l 0,-213.85699 c 0,-30.192 -25.399,-57.906 -59.9071,-57.906 l -147.622,0 c -34.507,0 -59.907,27.714 -59.907,57.906 l 0,213.85699 c 0,29.25 22.907,53.25 45.919,56.959 l -69.012,103.518 39.816,0 49.363,-72.367 135.264,0 49.3631,72.367 39.815,0 -69.0111,-103.518 z m -126.676,-306.70799 c 0,-5.25 4.566,-9.66 9.816,-9.66 l 58.122,0 c 5.25,0 9.816,4.41 9.816,9.66 l 0,17 c 0,5.25 -4.316,9.763 -9.816,9.763 l -58.122,0 c -5.5,0 -9.816,-4.513 -9.816,-9.763 l 0,-17 z m -62.782,68.24999 c 0,-16 10.348,-29.96199 29.848,-29.96199 l 143.622,0 c 19.5,0 29.8491,13.96199 29.8491,29.96199 l 0,38.5 c 0.151,18.5 -13.3491,29.826 -29.8491,29.826 l -143.622,0 c -16.5,0 -30,-11.326 -29.848,-29.826 l 0,-38.5 z m 26.598,207.263 c -14.505,0 -26.263,-11.76 -26.263,-26.264 0,-14.504 11.758,-26.263 26.263,-26.263 14.505,0 26.263,11.759 26.263,26.263 0,14.504 -11.758,26.264 -26.263,26.264 z m 123.25,-26.263 c 0,-14.504 11.758,-26.263 26.263,-26.263 14.505,0 26.2631,11.759 26.2631,26.263 0,14.504 -11.7581,26.264 -26.2631,26.264 -14.505,0 -26.263,-11.761 -26.263,-26.264 z m -9.554,-294.09599 c 0,9.16351 -7.4285,16.592 -16.592,16.592 -9.1635,0 -16.592,-7.42849 -16.592,-16.592 0,-9.16351 7.4285,-16.592 16.592,-16.592 9.1635,0 16.592,7.42849 16.592,16.592 z m -44.086,0 c 0,9.16351 -7.4285,16.592 -16.592,16.592 -9.1635,0 -16.592,-7.42849 -16.592,-16.592 0,-9.16351 7.4285,-16.592 16.592,-16.592 9.1635,0 16.592,7.42849 16.592,16.592 z"
     style="fill:#008000" />
</svg>
